<?xml version="1.0" encoding="UTF-8" standalone="no"?>
<!DOCTYPE svg PUBLIC "-//W3C//DTD SVG 1.1//EN"
 "http://www.w3.org/Graphics/SVG/1.1/DTD/svg11.dtd">
<!-- Generated by graphviz version 2.26.3 (20100126.1600)
 -->
<!-- Title: models_diagram Pages: 1 -->
<svg width="1001pt" height="1130pt"
 viewBox="0.00 0.00 1001.08 1130.00" xmlns="http://www.w3.org/2000/svg" xmlns:xlink="http://www.w3.org/1999/xlink">
<g id="graph1" class="graph" transform="scale(1 1) rotate(0) translate(4 1126)">
<title>models_diagram</title>
<polygon fill="white" stroke="white" points="-4,5 -4,-1126 998.075,-1126 998.075,5 -4,5"/>
<!-- GameCharacter -->
<g id="node1" class="node"><title>GameCharacter</title>
<polyline fill="none" stroke="black" points="481.075,-255 617.075,-255 "/>
<path fill="none" stroke="black" d="M617.075,-255C623.075,-255 629.075,-261 629.075,-267"/>
<polyline fill="none" stroke="black" points="629.075,-267 629.075,-331 "/>
<path fill="none" stroke="black" d="M629.075,-331C629.075,-337 623.075,-343 617.075,-343"/>
<polyline fill="none" stroke="black" points="617.075,-343 481.075,-343 "/>
<path fill="none" stroke="black" d="M481.075,-343C475.075,-343 469.075,-337 469.075,-331"/>
<polyline fill="none" stroke="black" points="469.075,-331 469.075,-267 "/>
<path fill="none" stroke="black" d="M469.075,-267C469.075,-261 475.075,-255 481.075,-255"/>
<text text-anchor="middle" x="549.075" y="-326.4" font-family="Times Roman,serif" font-size="14.00">GameCharacter</text>
<polyline fill="none" stroke="black" points="469.075,-317 629.075,-317 "/>
<text text-anchor="start" x="477.075" y="-300.4" font-family="Times Roman,serif" font-size="14.00">game_id :integer</text>
<text text-anchor="start" x="477.075" y="-282.4" font-family="Times Roman,serif" font-size="14.00">character_id :integer</text>
<text text-anchor="start" x="477.075" y="-264.4" font-family="Times Roman,serif" font-size="14.00">id :integer</text>
</g>
<!-- Session -->
<g id="node2" class="node"><title>Session</title>
<polyline fill="none" stroke="black" points="588.575,-518 729.575,-518 "/>
<path fill="none" stroke="black" d="M729.575,-518C735.575,-518 741.575,-524 741.575,-530"/>
<polyline fill="none" stroke="black" points="741.575,-530 741.575,-630 "/>
<path fill="none" stroke="black" d="M741.575,-630C741.575,-636 735.575,-642 729.575,-642"/>
<polyline fill="none" stroke="black" points="729.575,-642 588.575,-642 "/>
<path fill="none" stroke="black" d="M588.575,-642C582.575,-642 576.575,-636 576.575,-630"/>
<polyline fill="none" stroke="black" points="576.575,-630 576.575,-530 "/>
<path fill="none" stroke="black" d="M576.575,-530C576.575,-524 582.575,-518 588.575,-518"/>
<text text-anchor="middle" x="659.075" y="-625.4" font-family="Times Roman,serif" font-size="14.00">Session</text>
<polyline fill="none" stroke="black" points="576.575,-616 741.575,-616 "/>
<text text-anchor="start" x="584.575" y="-599.4" font-family="Times Roman,serif" font-size="14.00">id :integer</text>
<text text-anchor="start" x="584.575" y="-581.4" font-family="Times Roman,serif" font-size="14.00">game_id :integer</text>
<text text-anchor="start" x="584.575" y="-563.4" font-family="Times Roman,serif" font-size="14.00">date :date</text>
<text text-anchor="start" x="584.575" y="-545.4" font-family="Times Roman,serif" font-size="14.00">created_at :datetime</text>
<text text-anchor="start" x="584.575" y="-527.4" font-family="Times Roman,serif" font-size="14.00">updated_at :datetime</text>
</g>
<!-- Comment -->
<g id="node11" class="node"><title>Comment</title>
<polyline fill="none" stroke="black" points="840.575,-219 981.575,-219 "/>
<path fill="none" stroke="black" d="M981.575,-219C987.575,-219 993.575,-225 993.575,-231"/>
<polyline fill="none" stroke="black" points="993.575,-231 993.575,-367 "/>
<path fill="none" stroke="black" d="M993.575,-367C993.575,-373 987.575,-379 981.575,-379"/>
<polyline fill="none" stroke="black" points="981.575,-379 840.575,-379 "/>
<path fill="none" stroke="black" d="M840.575,-379C834.575,-379 828.575,-373 828.575,-367"/>
<polyline fill="none" stroke="black" points="828.575,-367 828.575,-231 "/>
<path fill="none" stroke="black" d="M828.575,-231C828.575,-225 834.575,-219 840.575,-219"/>
<text text-anchor="middle" x="911.075" y="-362.4" font-family="Times Roman,serif" font-size="14.00">Comment</text>
<polyline fill="none" stroke="black" points="828.575,-353 993.575,-353 "/>
<text text-anchor="start" x="836.575" y="-336.4" font-family="Times Roman,serif" font-size="14.00">id :integer</text>
<text text-anchor="start" x="836.575" y="-318.4" font-family="Times Roman,serif" font-size="14.00">subject_id :integer</text>
<text text-anchor="start" x="836.575" y="-300.4" font-family="Times Roman,serif" font-size="14.00">subject_type :string</text>
<text text-anchor="start" x="836.575" y="-282.4" font-family="Times Roman,serif" font-size="14.00">author_id :integer</text>
<text text-anchor="start" x="836.575" y="-264.4" font-family="Times Roman,serif" font-size="14.00">text :text</text>
<text text-anchor="start" x="836.575" y="-246.4" font-family="Times Roman,serif" font-size="14.00">created_at :datetime</text>
<text text-anchor="start" x="836.575" y="-228.4" font-family="Times Roman,serif" font-size="14.00">updated_at :datetime</text>
</g>
<!-- Session&#45;&gt;Comment -->
<g id="edge2" class="edge"><title>Session&#45;&gt;Comment</title>
<path fill="none" stroke="#5d53e6" d="M693.188,-510.699C708.146,-485.074 727.476,-457.15 750.075,-436 775.922,-411.811 792.162,-419.771 820.075,-398 824.792,-394.321 829.477,-390.386 834.088,-386.284"/>
<ellipse fill="none" stroke="#5d53e6" cx="691.075" cy="-514.388" rx="4.00002" ry="4.00002"/>
<polygon fill="#5d53e6" stroke="#5d53e6" points="834.401,-385.997 844.813,-382.555 838.087,-382.618 841.772,-379.238 841.772,-379.238 841.772,-379.238 838.087,-382.618 838.731,-375.922 834.401,-385.997 834.401,-385.997"/>
</g>
<!-- AuthData -->
<g id="node3" class="node"><title>AuthData</title>
<polyline fill="none" stroke="black" points="273.575,-763 414.575,-763 "/>
<path fill="none" stroke="black" d="M414.575,-763C420.575,-763 426.575,-769 426.575,-775"/>
<polyline fill="none" stroke="black" points="426.575,-775 426.575,-893 "/>
<path fill="none" stroke="black" d="M426.575,-893C426.575,-899 420.575,-905 414.575,-905"/>
<polyline fill="none" stroke="black" points="414.575,-905 273.575,-905 "/>
<path fill="none" stroke="black" d="M273.575,-905C267.575,-905 261.575,-899 261.575,-893"/>
<polyline fill="none" stroke="black" points="261.575,-893 261.575,-775 "/>
<path fill="none" stroke="black" d="M261.575,-775C261.575,-769 267.575,-763 273.575,-763"/>
<text text-anchor="middle" x="344.075" y="-888.4" font-family="Times Roman,serif" font-size="14.00">AuthData</text>
<polyline fill="none" stroke="black" points="261.575,-879 426.575,-879 "/>
<text text-anchor="start" x="269.575" y="-862.4" font-family="Times Roman,serif" font-size="14.00">id :integer</text>
<text text-anchor="start" x="269.575" y="-844.4" font-family="Times Roman,serif" font-size="14.00">provider :string</text>
<text text-anchor="start" x="269.575" y="-826.4" font-family="Times Roman,serif" font-size="14.00">uid :string</text>
<text text-anchor="start" x="269.575" y="-808.4" font-family="Times Roman,serif" font-size="14.00">user_id :integer</text>
<text text-anchor="start" x="269.575" y="-790.4" font-family="Times Roman,serif" font-size="14.00">created_at :datetime</text>
<text text-anchor="start" x="269.575" y="-772.4" font-family="Times Roman,serif" font-size="14.00">updated_at :datetime</text>
</g>
<!-- Klass -->
<g id="node4" class="node"><title>Klass</title>
<polyline fill="none" stroke="black" points="139.575,-482 306.575,-482 "/>
<path fill="none" stroke="black" d="M306.575,-482C312.575,-482 318.575,-488 318.575,-494"/>
<polyline fill="none" stroke="black" points="318.575,-494 318.575,-666 "/>
<path fill="none" stroke="black" d="M318.575,-666C318.575,-672 312.575,-678 306.575,-678"/>
<polyline fill="none" stroke="black" points="306.575,-678 139.575,-678 "/>
<path fill="none" stroke="black" d="M139.575,-678C133.575,-678 127.575,-672 127.575,-666"/>
<polyline fill="none" stroke="black" points="127.575,-666 127.575,-494 "/>
<path fill="none" stroke="black" d="M127.575,-494C127.575,-488 133.575,-482 139.575,-482"/>
<text text-anchor="middle" x="223.075" y="-661.4" font-family="Times Roman,serif" font-size="14.00">Klass</text>
<polyline fill="none" stroke="black" points="127.575,-652 318.575,-652 "/>
<text text-anchor="start" x="135.575" y="-635.4" font-family="Times Roman,serif" font-size="14.00">id :integer</text>
<text text-anchor="start" x="135.575" y="-617.4" font-family="Times Roman,serif" font-size="14.00">name :string</text>
<text text-anchor="start" x="135.575" y="-599.4" font-family="Times Roman,serif" font-size="14.00">description :text</text>
<text text-anchor="start" x="135.575" y="-581.4" font-family="Times Roman,serif" font-size="14.00">created_at :datetime</text>
<text text-anchor="start" x="135.575" y="-563.4" font-family="Times Roman,serif" font-size="14.00">updated_at :datetime</text>
<text text-anchor="start" x="135.575" y="-545.4" font-family="Times Roman,serif" font-size="14.00">alignment :string</text>
<text text-anchor="start" x="135.575" y="-527.4" font-family="Times Roman,serif" font-size="14.00">hit_die :integer</text>
<text text-anchor="start" x="135.575" y="-509.4" font-family="Times Roman,serif" font-size="14.00">skill_points :integer</text>
<text text-anchor="start" x="135.575" y="-491.4" font-family="Times Roman,serif" font-size="14.00">level_modificator :integer</text>
</g>
<!-- Level -->
<g id="node7" class="node"><title>Level</title>
<polyline fill="none" stroke="black" points="69.0753,-201 251.075,-201 "/>
<path fill="none" stroke="black" d="M251.075,-201C257.075,-201 263.075,-207 263.075,-213"/>
<polyline fill="none" stroke="black" points="263.075,-213 263.075,-385 "/>
<path fill="none" stroke="black" d="M263.075,-385C263.075,-391 257.075,-397 251.075,-397"/>
<polyline fill="none" stroke="black" points="251.075,-397 69.0753,-397 "/>
<path fill="none" stroke="black" d="M69.0753,-397C63.0753,-397 57.0753,-391 57.0753,-385"/>
<polyline fill="none" stroke="black" points="57.0753,-385 57.0753,-213 "/>
<path fill="none" stroke="black" d="M57.0753,-213C57.0753,-207 63.0753,-201 69.0753,-201"/>
<text text-anchor="middle" x="160.075" y="-380.4" font-family="Times Roman,serif" font-size="14.00">Level</text>
<polyline fill="none" stroke="black" points="57.0753,-371 263.075,-371 "/>
<text text-anchor="start" x="65.0753" y="-354.4" font-family="Times Roman,serif" font-size="14.00">id :integer</text>
<text text-anchor="start" x="65.0753" y="-336.4" font-family="Times Roman,serif" font-size="14.00">level :integer</text>
<text text-anchor="start" x="65.0753" y="-318.4" font-family="Times Roman,serif" font-size="14.00">st_fort :integer</text>
<text text-anchor="start" x="65.0753" y="-300.4" font-family="Times Roman,serif" font-size="14.00">st_ref :integer</text>
<text text-anchor="start" x="65.0753" y="-282.4" font-family="Times Roman,serif" font-size="14.00">st_will :integer</text>
<text text-anchor="start" x="65.0753" y="-264.4" font-family="Times Roman,serif" font-size="14.00">base_attack_bonus :integer</text>
<text text-anchor="start" x="65.0753" y="-246.4" font-family="Times Roman,serif" font-size="14.00">klass_id :integer</text>
<text text-anchor="start" x="65.0753" y="-228.4" font-family="Times Roman,serif" font-size="14.00">created_at :datetime</text>
<text text-anchor="start" x="65.0753" y="-210.4" font-family="Times Roman,serif" font-size="14.00">updated_at :datetime</text>
</g>
<!-- Klass&#45;&gt;Level -->
<g id="edge4" class="edge"><title>Klass&#45;&gt;Level</title>
<path fill="none" stroke="#d1a11d" d="M199.228,-473.635C194.352,-451.885 189.215,-428.973 184.325,-407.161"/>
<ellipse fill="none" stroke="#d1a11d" cx="200.166" cy="-477.817" rx="4.00001" ry="4.00001"/>
<polygon fill="#d1a11d" stroke="#d1a11d" points="184.285,-406.982 186.488,-396.24 183.191,-402.104 182.097,-397.225 182.097,-397.225 182.097,-397.225 183.191,-402.104 177.706,-398.209 184.285,-406.982 184.285,-406.982"/>
</g>
<!-- Charlevel -->
<g id="node9" class="node"><title>Charlevel</title>
<polyline fill="none" stroke="black" points="292.575,-228 439.575,-228 "/>
<path fill="none" stroke="black" d="M439.575,-228C445.575,-228 451.575,-234 451.575,-240"/>
<polyline fill="none" stroke="black" points="451.575,-240 451.575,-358 "/>
<path fill="none" stroke="black" d="M451.575,-358C451.575,-364 445.575,-370 439.575,-370"/>
<polyline fill="none" stroke="black" points="439.575,-370 292.575,-370 "/>
<path fill="none" stroke="black" d="M292.575,-370C286.575,-370 280.575,-364 280.575,-358"/>
<polyline fill="none" stroke="black" points="280.575,-358 280.575,-240 "/>
<path fill="none" stroke="black" d="M280.575,-240C280.575,-234 286.575,-228 292.575,-228"/>
<text text-anchor="middle" x="366.075" y="-353.4" font-family="Times Roman,serif" font-size="14.00">Charlevel</text>
<polyline fill="none" stroke="black" points="280.575,-344 451.575,-344 "/>
<text text-anchor="start" x="288.575" y="-327.4" font-family="Times Roman,serif" font-size="14.00">id :integer</text>
<text text-anchor="start" x="288.575" y="-309.4" font-family="Times Roman,serif" font-size="14.00">klass_id :integer</text>
<text text-anchor="start" x="288.575" y="-291.4" font-family="Times Roman,serif" font-size="14.00">character_id :integer</text>
<text text-anchor="start" x="288.575" y="-273.4" font-family="Times Roman,serif" font-size="14.00">hit_die_throw :integer</text>
<text text-anchor="start" x="288.575" y="-255.4" font-family="Times Roman,serif" font-size="14.00">created_at :datetime</text>
<text text-anchor="start" x="288.575" y="-237.4" font-family="Times Roman,serif" font-size="14.00">updated_at :datetime</text>
</g>
<!-- Klass&#45;&gt;Charlevel -->
<g id="edge6" class="edge"><title>Klass&#45;&gt;Charlevel</title>
<path fill="none" stroke="#e0849d" d="M276.839,-474.352C292.869,-442.852 310.169,-408.858 325.23,-379.262"/>
<ellipse fill="none" stroke="#e0849d" cx="274.904" cy="-478.155" rx="4.00002" ry="4.00002"/>
<polygon fill="#e0849d" stroke="#e0849d" points="325.293,-379.138 333.839,-372.267 327.561,-374.682 329.829,-370.226 329.829,-370.226 329.829,-370.226 327.561,-374.682 325.818,-368.185 325.293,-379.138 325.293,-379.138"/>
</g>
<!-- Modifier -->
<g id="node5" class="node"><title>Modifier</title>
<polyline fill="none" stroke="black" points="160.575,-1 319.575,-1 "/>
<path fill="none" stroke="black" d="M319.575,-1C325.575,-1 331.575,-7 331.575,-13"/>
<polyline fill="none" stroke="black" points="331.575,-13 331.575,-149 "/>
<path fill="none" stroke="black" d="M331.575,-149C331.575,-155 325.575,-161 319.575,-161"/>
<polyline fill="none" stroke="black" points="319.575,-161 160.575,-161 "/>
<path fill="none" stroke="black" d="M160.575,-161C154.575,-161 148.575,-155 148.575,-149"/>
<polyline fill="none" stroke="black" points="148.575,-149 148.575,-13 "/>
<path fill="none" stroke="black" d="M148.575,-13C148.575,-7 154.575,-1 160.575,-1"/>
<text text-anchor="middle" x="240.075" y="-144.4" font-family="Times Roman,serif" font-size="14.00">Modifier</text>
<polyline fill="none" stroke="black" points="148.575,-135 331.575,-135 "/>
<text text-anchor="start" x="156.575" y="-118.4" font-family="Times Roman,serif" font-size="14.00">id :integer</text>
<text text-anchor="start" x="156.575" y="-100.4" font-family="Times Roman,serif" font-size="14.00">value :string</text>
<text text-anchor="start" x="156.575" y="-82.4" font-family="Times Roman,serif" font-size="14.00">property_id :integer</text>
<text text-anchor="start" x="156.575" y="-64.4" font-family="Times Roman,serif" font-size="14.00">data_object_id :integer</text>
<text text-anchor="start" x="156.575" y="-46.4" font-family="Times Roman,serif" font-size="14.00">data_object_type :string</text>
<text text-anchor="start" x="156.575" y="-28.4" font-family="Times Roman,serif" font-size="14.00">created_at :datetime</text>
<text text-anchor="start" x="156.575" y="-10.4" font-family="Times Roman,serif" font-size="14.00">updated_at :datetime</text>
</g>
<!-- Race -->
<g id="node6" class="node"><title>Race</title>
<polyline fill="none" stroke="black" points="45.5753,-772 186.575,-772 "/>
<path fill="none" stroke="black" d="M186.575,-772C192.575,-772 198.575,-778 198.575,-784"/>
<polyline fill="none" stroke="black" points="198.575,-784 198.575,-884 "/>
<path fill="none" stroke="black" d="M198.575,-884C198.575,-890 192.575,-896 186.575,-896"/>
<polyline fill="none" stroke="black" points="186.575,-896 45.5753,-896 "/>
<path fill="none" stroke="black" d="M45.5753,-896C39.5753,-896 33.5753,-890 33.5753,-884"/>
<polyline fill="none" stroke="black" points="33.5753,-884 33.5753,-784 "/>
<path fill="none" stroke="black" d="M33.5753,-784C33.5753,-778 39.5753,-772 45.5753,-772"/>
<text text-anchor="middle" x="116.075" y="-879.4" font-family="Times Roman,serif" font-size="14.00">Race</text>
<polyline fill="none" stroke="black" points="33.5753,-870 198.575,-870 "/>
<text text-anchor="start" x="41.5753" y="-853.4" font-family="Times Roman,serif" font-size="14.00">id :integer</text>
<text text-anchor="start" x="41.5753" y="-835.4" font-family="Times Roman,serif" font-size="14.00">name :string</text>
<text text-anchor="start" x="41.5753" y="-817.4" font-family="Times Roman,serif" font-size="14.00">description :text</text>
<text text-anchor="start" x="41.5753" y="-799.4" font-family="Times Roman,serif" font-size="14.00">created_at :datetime</text>
<text text-anchor="start" x="41.5753" y="-781.4" font-family="Times Roman,serif" font-size="14.00">updated_at :datetime</text>
</g>
<!-- Race&#45;&gt;Modifier -->
<g id="edge8" class="edge"><title>Race&#45;&gt;Modifier</title>
<path fill="none" stroke="#467596" d="M83.662,-764.097C31.9078,-641.37 -53.7161,-382.846 48.0753,-200 68.1222,-163.99 104.067,-137.491 139.479,-118.763"/>
<ellipse fill="none" stroke="#467596" cx="85.2997" cy="-767.945" rx="4.00002" ry="4.00002"/>
<polygon fill="#467596" stroke="#467596" points="139.558,-118.722 150.51,-118.174 144.009,-116.445 148.46,-114.167 148.46,-114.167 148.46,-114.167 144.009,-116.445 146.411,-110.161 139.558,-118.722 139.558,-118.722"/>
</g>
<!-- Character -->
<g id="node12" class="node"><title>Character</title>
<polyline fill="none" stroke="black" points="368.575,-437 509.575,-437 "/>
<path fill="none" stroke="black" d="M509.575,-437C515.575,-437 521.575,-443 521.575,-449"/>
<polyline fill="none" stroke="black" points="521.575,-449 521.575,-711 "/>
<path fill="none" stroke="black" d="M521.575,-711C521.575,-717 515.575,-723 509.575,-723"/>
<polyline fill="none" stroke="black" points="509.575,-723 368.575,-723 "/>
<path fill="none" stroke="black" d="M368.575,-723C362.575,-723 356.575,-717 356.575,-711"/>
<polyline fill="none" stroke="black" points="356.575,-711 356.575,-449 "/>
<path fill="none" stroke="black" d="M356.575,-449C356.575,-443 362.575,-437 368.575,-437"/>
<text text-anchor="middle" x="439.075" y="-706.4" font-family="Times Roman,serif" font-size="14.00">Character</text>
<polyline fill="none" stroke="black" points="356.575,-697 521.575,-697 "/>
<text text-anchor="start" x="364.575" y="-680.4" font-family="Times Roman,serif" font-size="14.00">id :integer</text>
<text text-anchor="start" x="364.575" y="-662.4" font-family="Times Roman,serif" font-size="14.00">user_id :integer</text>
<text text-anchor="start" x="364.575" y="-644.4" font-family="Times Roman,serif" font-size="14.00">name :string</text>
<text text-anchor="start" x="364.575" y="-626.4" font-family="Times Roman,serif" font-size="14.00">description :text</text>
<text text-anchor="start" x="364.575" y="-608.4" font-family="Times Roman,serif" font-size="14.00">created_at :datetime</text>
<text text-anchor="start" x="364.575" y="-590.4" font-family="Times Roman,serif" font-size="14.00">updated_at :datetime</text>
<text text-anchor="start" x="364.575" y="-572.4" font-family="Times Roman,serif" font-size="14.00">race_id :integer</text>
<text text-anchor="start" x="364.575" y="-554.4" font-family="Times Roman,serif" font-size="14.00">experience :integer</text>
<text text-anchor="start" x="364.575" y="-536.4" font-family="Times Roman,serif" font-size="14.00">str :integer</text>
<text text-anchor="start" x="364.575" y="-518.4" font-family="Times Roman,serif" font-size="14.00">dex :integer</text>
<text text-anchor="start" x="364.575" y="-500.4" font-family="Times Roman,serif" font-size="14.00">con :integer</text>
<text text-anchor="start" x="364.575" y="-482.4" font-family="Times Roman,serif" font-size="14.00">int :integer</text>
<text text-anchor="start" x="364.575" y="-464.4" font-family="Times Roman,serif" font-size="14.00">wis :integer</text>
<text text-anchor="start" x="364.575" y="-446.4" font-family="Times Roman,serif" font-size="14.00">cha :integer</text>
</g>
<!-- Race&#45;&gt;Character -->
<g id="edge10" class="edge"><title>Race&#45;&gt;Character</title>
<path fill="none" stroke="#475c8e" d="M205.791,-786.694C221.536,-778.437 237.774,-769.949 253.075,-762 285.884,-744.955 298.61,-747.593 327.075,-724 334.665,-717.709 342.065,-710.82 349.209,-703.57"/>
<ellipse fill="none" stroke="#475c8e" cx="202.139" cy="-788.611" rx="4.00002" ry="4.00002"/>
<polygon fill="#475c8e" stroke="#475c8e" points="349.345,-703.428 359.513,-699.323 352.805,-699.818 356.265,-696.209 356.265,-696.209 356.265,-696.209 352.805,-699.818 353.016,-693.095 349.345,-703.428 349.345,-703.428"/>
</g>
<!-- Level&#45;&gt;Modifier -->
<g id="edge12" class="edge"><title>Level&#45;&gt;Modifier</title>
<path fill="none" stroke="#ed099e" d="M198.947,-193.075C201.642,-185.73 204.344,-178.367 207.004,-171.118"/>
<ellipse fill="none" stroke="#ed099e" cx="197.475" cy="-197.086" rx="4.00001" ry="4.00001"/>
<polygon fill="#ed099e" stroke="#ed099e" points="207.156,-170.706 214.825,-162.868 208.878,-166.012 210.601,-161.318 210.601,-161.318 210.601,-161.318 208.878,-166.012 206.376,-159.767 207.156,-170.706 207.156,-170.706"/>
</g>
<!-- Game -->
<g id="node8" class="node"><title>Game</title>
<polyline fill="none" stroke="black" points="493.575,-763 634.575,-763 "/>
<path fill="none" stroke="black" d="M634.575,-763C640.575,-763 646.575,-769 646.575,-775"/>
<polyline fill="none" stroke="black" points="646.575,-775 646.575,-893 "/>
<path fill="none" stroke="black" d="M646.575,-893C646.575,-899 640.575,-905 634.575,-905"/>
<polyline fill="none" stroke="black" points="634.575,-905 493.575,-905 "/>
<path fill="none" stroke="black" d="M493.575,-905C487.575,-905 481.575,-899 481.575,-893"/>
<polyline fill="none" stroke="black" points="481.575,-893 481.575,-775 "/>
<path fill="none" stroke="black" d="M481.575,-775C481.575,-769 487.575,-763 493.575,-763"/>
<text text-anchor="middle" x="564.075" y="-888.4" font-family="Times Roman,serif" font-size="14.00">Game</text>
<polyline fill="none" stroke="black" points="481.575,-879 646.575,-879 "/>
<text text-anchor="start" x="489.575" y="-862.4" font-family="Times Roman,serif" font-size="14.00">id :integer</text>
<text text-anchor="start" x="489.575" y="-844.4" font-family="Times Roman,serif" font-size="14.00">name :string</text>
<text text-anchor="start" x="489.575" y="-826.4" font-family="Times Roman,serif" font-size="14.00">description :text</text>
<text text-anchor="start" x="489.575" y="-808.4" font-family="Times Roman,serif" font-size="14.00">master_id :integer</text>
<text text-anchor="start" x="489.575" y="-790.4" font-family="Times Roman,serif" font-size="14.00">created_at :datetime</text>
<text text-anchor="start" x="489.575" y="-772.4" font-family="Times Roman,serif" font-size="14.00">updated_at :datetime</text>
</g>
<!-- Game&#45;&gt;GameCharacter -->
<g id="edge14" class="edge"><title>Game&#45;&gt;GameCharacter</title>
<path fill="none" stroke="#b8273e" d="M561.857,-754.895C558.77,-644.79 553.258,-448.196 550.597,-353.259"/>
<ellipse fill="none" stroke="#b8273e" cx="561.971" cy="-758.958" rx="4" ry="4"/>
<polygon fill="#b8273e" stroke="#b8273e" points="550.59,-353.017 554.808,-342.895 550.45,-348.019 550.31,-343.021 550.31,-343.021 550.31,-343.021 550.45,-348.019 545.811,-343.147 550.59,-353.017 550.59,-353.017"/>
</g>
<!-- Game&#45;&gt;Session -->
<g id="edge18" class="edge"><title>Game&#45;&gt;Session</title>
<path fill="none" stroke="#5f3f6b" d="M593.536,-755.231C605.943,-722.058 620.279,-683.729 632.373,-651.393"/>
<ellipse fill="none" stroke="#5f3f6b" cx="592.066" cy="-759.163" rx="4.00001" ry="4.00001"/>
<polygon fill="#5f3f6b" stroke="#5f3f6b" points="632.382,-651.369 640.1,-643.579 634.134,-646.686 635.885,-642.003 635.885,-642.003 635.885,-642.003 634.134,-646.686 631.67,-640.426 632.382,-651.369 632.382,-651.369"/>
</g>
<!-- Game&#45;&gt;Character -->
<g id="edge16" class="edge"><title>Game&#45;&gt;Character</title>
<path fill="none" stroke="#379812" d="M524.556,-753.696C521.18,-746.837 517.701,-739.767 514.165,-732.583"/>
<polygon fill="#379812" stroke="#379812" points="524.674,-753.937 525.052,-764.896 526.882,-758.423 529.09,-762.909 529.09,-762.909 529.09,-762.909 526.882,-758.423 533.127,-760.922 524.674,-753.937 524.674,-753.937"/>
<polygon fill="#379812" stroke="#379812" points="514.076,-732.402 513.698,-721.443 511.869,-727.916 509.661,-723.43 509.661,-723.43 509.661,-723.43 511.869,-727.916 505.623,-725.417 514.076,-732.402 514.076,-732.402"/>
</g>
<!-- Invitation -->
<g id="node15" class="node"><title>Invitation</title>
<polyline fill="none" stroke="black" points="770.575,-518 911.575,-518 "/>
<path fill="none" stroke="black" d="M911.575,-518C917.575,-518 923.575,-524 923.575,-530"/>
<polyline fill="none" stroke="black" points="923.575,-530 923.575,-630 "/>
<path fill="none" stroke="black" d="M923.575,-630C923.575,-636 917.575,-642 911.575,-642"/>
<polyline fill="none" stroke="black" points="911.575,-642 770.575,-642 "/>
<path fill="none" stroke="black" d="M770.575,-642C764.575,-642 758.575,-636 758.575,-630"/>
<polyline fill="none" stroke="black" points="758.575,-630 758.575,-530 "/>
<path fill="none" stroke="black" d="M758.575,-530C758.575,-524 764.575,-518 770.575,-518"/>
<text text-anchor="middle" x="841.075" y="-625.4" font-family="Times Roman,serif" font-size="14.00">Invitation</text>
<polyline fill="none" stroke="black" points="758.575,-616 923.575,-616 "/>
<text text-anchor="start" x="766.575" y="-599.4" font-family="Times Roman,serif" font-size="14.00">id :integer</text>
<text text-anchor="start" x="766.575" y="-581.4" font-family="Times Roman,serif" font-size="14.00">user_id :integer</text>
<text text-anchor="start" x="766.575" y="-563.4" font-family="Times Roman,serif" font-size="14.00">game_id :integer</text>
<text text-anchor="start" x="766.575" y="-545.4" font-family="Times Roman,serif" font-size="14.00">created_at :datetime</text>
<text text-anchor="start" x="766.575" y="-527.4" font-family="Times Roman,serif" font-size="14.00">updated_at :datetime</text>
</g>
<!-- Game&#45;&gt;Invitation -->
<g id="edge20" class="edge"><title>Game&#45;&gt;Invitation</title>
<path fill="none" stroke="#ae3fe2" d="M654.081,-792.038C686.692,-774.069 722.299,-750.969 750.075,-724 771.713,-702.992 790.551,-675.871 805.388,-650.841"/>
<ellipse fill="none" stroke="#ae3fe2" cx="650.253" cy="-794.117" rx="4.00002" ry="4.00002"/>
<polygon fill="#ae3fe2" stroke="#ae3fe2" points="805.448,-650.737 814.359,-644.346 807.957,-646.413 810.467,-642.088 810.467,-642.088 810.467,-642.088 807.957,-646.413 806.575,-639.829 805.448,-650.737 805.448,-650.737"/>
</g>
<!-- Charlevel&#45;&gt;Modifier -->
<g id="edge22" class="edge"><title>Charlevel&#45;&gt;Modifier</title>
<path fill="none" stroke="#66a4d7" d="M320.896,-220.833C311.336,-204.292 301.178,-186.718 291.409,-169.815"/>
<ellipse fill="none" stroke="#66a4d7" cx="322.991" cy="-224.457" rx="4.00002" ry="4.00002"/>
<polygon fill="#66a4d7" stroke="#66a4d7" points="291.345,-169.704 290.236,-158.794 288.842,-165.375 286.34,-161.046 286.34,-161.046 286.34,-161.046 288.842,-165.375 282.444,-163.298 291.345,-169.704 291.345,-169.704"/>
</g>
<!-- Property -->
<g id="node10" class="node"><title>Property</title>
<polyline fill="none" stroke="black" points="658.575,-237 799.575,-237 "/>
<path fill="none" stroke="black" d="M799.575,-237C805.575,-237 811.575,-243 811.575,-249"/>
<polyline fill="none" stroke="black" points="811.575,-249 811.575,-349 "/>
<path fill="none" stroke="black" d="M811.575,-349C811.575,-355 805.575,-361 799.575,-361"/>
<polyline fill="none" stroke="black" points="799.575,-361 658.575,-361 "/>
<path fill="none" stroke="black" d="M658.575,-361C652.575,-361 646.575,-355 646.575,-349"/>
<polyline fill="none" stroke="black" points="646.575,-349 646.575,-249 "/>
<path fill="none" stroke="black" d="M646.575,-249C646.575,-243 652.575,-237 658.575,-237"/>
<text text-anchor="middle" x="729.075" y="-344.4" font-family="Times Roman,serif" font-size="14.00">Property</text>
<polyline fill="none" stroke="black" points="646.575,-335 811.575,-335 "/>
<text text-anchor="start" x="654.575" y="-318.4" font-family="Times Roman,serif" font-size="14.00">id :integer</text>
<text text-anchor="start" x="654.575" y="-300.4" font-family="Times Roman,serif" font-size="14.00">name :string</text>
<text text-anchor="start" x="654.575" y="-282.4" font-family="Times Roman,serif" font-size="14.00">group :string</text>
<text text-anchor="start" x="654.575" y="-264.4" font-family="Times Roman,serif" font-size="14.00">created_at :datetime</text>
<text text-anchor="start" x="654.575" y="-246.4" font-family="Times Roman,serif" font-size="14.00">updated_at :datetime</text>
</g>
<!-- Property&#45;&gt;Modifier -->
<g id="edge24" class="edge"><title>Property&#45;&gt;Modifier</title>
<path fill="none" stroke="#022857" d="M675.549,-230.713C664.15,-219.254 651.474,-208.382 638.075,-200 546.621,-142.789 426.164,-111.808 341.818,-95.9362"/>
<ellipse fill="none" stroke="#022857" cx="678.609" cy="-233.875" rx="4.00002" ry="4.00002"/>
<polygon fill="#022857" stroke="#022857" points="341.807,-95.9343 332.789,-89.6959 336.89,-95.0278 331.973,-94.1213 331.973,-94.1213 331.973,-94.1213 336.89,-95.0278 331.157,-98.5467 341.807,-95.9343 341.807,-95.9343"/>
</g>
<!-- Character&#45;&gt;GameCharacter -->
<g id="edge26" class="edge"><title>Character&#45;&gt;GameCharacter</title>
<path fill="none" stroke="#a93bce" d="M498.172,-429.034C508.912,-401.599 519.442,-374.7 528.112,-352.551"/>
<ellipse fill="none" stroke="#a93bce" cx="496.661" cy="-432.894" rx="4.00001" ry="4.00001"/>
<polygon fill="#a93bce" stroke="#a93bce" points="528.189,-352.356 536.024,-344.684 530.011,-347.7 531.834,-343.044 531.834,-343.044 531.834,-343.044 530.011,-347.7 527.644,-341.403 528.189,-352.356 528.189,-352.356"/>
</g>
<!-- Character&#45;&gt;Charlevel -->
<g id="edge28" class="edge"><title>Character&#45;&gt;Charlevel</title>
<path fill="none" stroke="#6397fe" d="M399.786,-428.763C395.424,-411.974 391.116,-395.391 387.113,-379.979"/>
<ellipse fill="none" stroke="#6397fe" cx="400.821" cy="-432.747" rx="4.00001" ry="4.00001"/>
<polygon fill="#6397fe" stroke="#6397fe" points="387.043,-379.71 388.884,-368.899 385.785,-374.87 384.528,-370.031 384.528,-370.031 384.528,-370.031 385.785,-374.87 380.173,-371.162 387.043,-379.71 387.043,-379.71"/>
</g>
<!-- User -->
<g id="node13" class="node"><title>User</title>
<polyline fill="none" stroke="black" points="417.575,-988 558.575,-988 "/>
<path fill="none" stroke="black" d="M558.575,-988C564.575,-988 570.575,-994 570.575,-1000"/>
<polyline fill="none" stroke="black" points="570.575,-1000 570.575,-1082 "/>
<path fill="none" stroke="black" d="M570.575,-1082C570.575,-1088 564.575,-1094 558.575,-1094"/>
<polyline fill="none" stroke="black" points="558.575,-1094 417.575,-1094 "/>
<path fill="none" stroke="black" d="M417.575,-1094C411.575,-1094 405.575,-1088 405.575,-1082"/>
<polyline fill="none" stroke="black" points="405.575,-1082 405.575,-1000 "/>
<path fill="none" stroke="black" d="M405.575,-1000C405.575,-994 411.575,-988 417.575,-988"/>
<text text-anchor="middle" x="488.075" y="-1077.4" font-family="Times Roman,serif" font-size="14.00">User</text>
<polyline fill="none" stroke="black" points="405.575,-1068 570.575,-1068 "/>
<text text-anchor="start" x="413.575" y="-1051.4" font-family="Times Roman,serif" font-size="14.00">id :integer</text>
<text text-anchor="start" x="413.575" y="-1033.4" font-family="Times Roman,serif" font-size="14.00">name :string</text>
<text text-anchor="start" x="413.575" y="-1015.4" font-family="Times Roman,serif" font-size="14.00">created_at :datetime</text>
<text text-anchor="start" x="413.575" y="-997.4" font-family="Times Roman,serif" font-size="14.00">updated_at :datetime</text>
</g>
<!-- User&#45;&gt;AuthData -->
<g id="edge30" class="edge"><title>User&#45;&gt;AuthData</title>
<path fill="none" stroke="#2564ba" d="M403.258,-982.521C390.272,-970.408 378.183,-956.782 369.075,-942 363.605,-933.121 359.33,-923.162 355.99,-912.978"/>
<ellipse fill="none" stroke="#2564ba" cx="406.317" cy="-985.292" rx="4.00002" ry="4.00002"/>
<ellipse fill="#2564ba" stroke="#2564ba" cx="354.777" cy="-908.988" rx="4.00001" ry="4.00001"/>
<text text-anchor="middle" x="404.575" y="-929.4" font-family="Times Roman,serif" font-size="14.00">auth_data</text>
</g>
<!-- User&#45;&gt;Game -->
<g id="edge36" class="edge"><title>User&#45;&gt;Game</title>
<path fill="none" stroke="#aba928" d="M510.307,-980.449C517.839,-959.932 526.377,-936.678 534.395,-914.839"/>
<ellipse fill="none" stroke="#aba928" cx="508.927" cy="-984.206" rx="4.00001" ry="4.00001"/>
<polygon fill="#aba928" stroke="#aba928" points="534.469,-914.637 542.14,-906.801 536.193,-909.944 537.916,-905.25 537.916,-905.25 537.916,-905.25 536.193,-909.944 533.692,-903.699 534.469,-914.637 534.469,-914.637"/>
</g>
<!-- User&#45;&gt;Character -->
<g id="edge32" class="edge"><title>User&#45;&gt;Character</title>
<path fill="none" stroke="#bec72a" d="M481.183,-979.767C478.605,-956.654 475.673,-930.119 473.075,-906 467.009,-849.675 460.519,-787.857 454.852,-733.336"/>
<ellipse fill="none" stroke="#bec72a" cx="481.635" cy="-983.815" rx="4.00001" ry="4.00001"/>
<polygon fill="#bec72a" stroke="#bec72a" points="454.837,-733.191 458.28,-722.779 454.321,-728.217 453.804,-723.244 453.804,-723.244 453.804,-723.244 454.321,-728.217 449.328,-723.709 454.837,-733.191 454.837,-733.191"/>
</g>
<!-- User&#45;&gt;Invitation -->
<g id="edge34" class="edge"><title>User&#45;&gt;Invitation</title>
<path fill="none" stroke="#e9c3c4" d="M552.136,-982.421C561.055,-974.726 570.203,-967.066 579.075,-960 611.488,-934.186 627.265,-936.717 655.075,-906 724.762,-829.028 779.76,-721.573 811.356,-651.405"/>
<ellipse fill="none" stroke="#e9c3c4" cx="549.023" cy="-985.124" rx="4.00002" ry="4.00002"/>
<polygon fill="#e9c3c4" stroke="#e9c3c4" points="811.394,-651.318 819.579,-644.019 813.432,-646.751 815.469,-642.185 815.469,-642.185 815.469,-642.185 813.432,-646.751 811.359,-640.352 811.394,-651.318 811.394,-651.318"/>
</g>
<!-- Requirement -->
<g id="node14" class="node"><title>Requirement</title>
<polyline fill="none" stroke="black" points="599.575,-961 758.575,-961 "/>
<path fill="none" stroke="black" d="M758.575,-961C764.575,-961 770.575,-967 770.575,-973"/>
<polyline fill="none" stroke="black" points="770.575,-973 770.575,-1109 "/>
<path fill="none" stroke="black" d="M770.575,-1109C770.575,-1115 764.575,-1121 758.575,-1121"/>
<polyline fill="none" stroke="black" points="758.575,-1121 599.575,-1121 "/>
<path fill="none" stroke="black" d="M599.575,-1121C593.575,-1121 587.575,-1115 587.575,-1109"/>
<polyline fill="none" stroke="black" points="587.575,-1109 587.575,-973 "/>
<path fill="none" stroke="black" d="M587.575,-973C587.575,-967 593.575,-961 599.575,-961"/>
<text text-anchor="middle" x="679.075" y="-1104.4" font-family="Times Roman,serif" font-size="14.00">Requirement</text>
<polyline fill="none" stroke="black" points="587.575,-1095 770.575,-1095 "/>
<text text-anchor="start" x="595.575" y="-1078.4" font-family="Times Roman,serif" font-size="14.00">id :integer</text>
<text text-anchor="start" x="595.575" y="-1060.4" font-family="Times Roman,serif" font-size="14.00">value :string</text>
<text text-anchor="start" x="595.575" y="-1042.4" font-family="Times Roman,serif" font-size="14.00">property_id :integer</text>
<text text-anchor="start" x="595.575" y="-1024.4" font-family="Times Roman,serif" font-size="14.00">data_object_id :integer</text>
<text text-anchor="start" x="595.575" y="-1006.4" font-family="Times Roman,serif" font-size="14.00">data_object_type :string</text>
<text text-anchor="start" x="595.575" y="-988.4" font-family="Times Roman,serif" font-size="14.00">created_at :datetime</text>
<text text-anchor="start" x="595.575" y="-970.4" font-family="Times Roman,serif" font-size="14.00">updated_at :datetime</text>
</g>
</g>
</svg>
